<svg width="411" height="162" viewBox="0 0 411 162" fill="none" xmlns="http://www.w3.org/2000/svg">
<path d="M168.888 15L165.848 4.44H168.776L170.568 12.776L172.456 4.44H174.952L176.888 12.76L178.648 4.44H181.48L178.424 15H175.432L174.184 9.88L173.704 7.304H173.672L173.208 9.88L171.976 15H168.888ZM192.31 4.28C193.377 4.28 194.294 4.49867 195.062 4.936C195.841 5.36267 196.438 5.98133 196.854 6.792C197.27 7.60267 197.478 8.57867 197.478 9.72C197.478 10.8613 197.27 11.8373 196.854 12.648C196.438 13.4587 195.841 14.0827 195.062 14.52C194.294 14.9467 193.377 15.16 192.31 15.16C191.244 15.16 190.321 14.9467 189.542 14.52C188.764 14.0827 188.166 13.4587 187.75 12.648C187.334 11.8373 187.126 10.8613 187.126 9.72C187.126 8.57867 187.334 7.60267 187.75 6.792C188.166 5.98133 188.764 5.36267 189.542 4.936C190.321 4.49867 191.244 4.28 192.31 4.28ZM192.31 6.44C191.798 6.44 191.366 6.56267 191.014 6.808C190.662 7.05333 190.396 7.42133 190.214 7.912C190.033 8.392 189.942 8.99467 189.942 9.72C189.942 10.4347 190.033 11.0373 190.214 11.528C190.396 12.0187 190.662 12.3867 191.014 12.632C191.366 12.8773 191.798 13 192.31 13C192.822 13 193.249 12.8773 193.59 12.632C193.942 12.3867 194.209 12.0187 194.39 11.528C194.572 11.0373 194.662 10.4347 194.662 9.72C194.662 8.99467 194.572 8.392 194.39 7.912C194.209 7.42133 193.942 7.05333 193.59 6.808C193.249 6.56267 192.822 6.44 192.31 6.44ZM209.411 4.44C210.67 4.44 211.646 4.73867 212.339 5.336C213.043 5.92267 213.395 6.70667 213.395 7.688C213.395 8.76533 213.048 9.58667 212.355 10.152C211.662 10.7173 210.686 11 209.427 11L209.171 11.144H207.075V15H204.371V4.44H209.411ZM209.027 9.192C209.56 9.192 209.96 9.08533 210.227 8.872C210.494 8.65867 210.627 8.31733 210.627 7.848C210.627 7.38933 210.494 7.05333 210.227 6.84C209.96 6.62667 209.56 6.52 209.027 6.52H207.075V9.192H209.027ZM210.643 9.768L214.019 15H210.979L208.275 10.376L210.643 9.768ZM229.986 4.44L225.026 10.376L224.85 9.96L222.338 13.016L221.81 10.792L226.93 4.44H229.986ZM223.154 4.44V15H220.402V4.44H223.154ZM225.922 7.928L230.178 15H227.058L223.858 9.464L225.922 7.928ZM240.296 4.28C241.277 4.28 242.141 4.43467 242.888 4.744C243.645 5.04267 244.301 5.48533 244.856 6.072L243.528 7.848C243.069 7.368 242.573 7.01067 242.04 6.776C241.517 6.53067 240.92 6.408 240.248 6.408C239.853 6.408 239.533 6.45067 239.288 6.536C239.043 6.62133 238.867 6.73867 238.76 6.888C238.653 7.03733 238.6 7.208 238.6 7.4C238.6 7.624 238.701 7.816 238.904 7.976C239.117 8.12533 239.459 8.25333 239.928 8.36L241.704 8.76C242.76 9.00533 243.533 9.36267 244.024 9.832C244.515 10.3013 244.76 10.9253 244.76 11.704C244.76 12.4507 244.568 13.0853 244.184 13.608C243.8 14.12 243.272 14.5093 242.6 14.776C241.928 15.032 241.16 15.16 240.296 15.16C239.592 15.16 238.92 15.0853 238.28 14.936C237.64 14.776 237.064 14.552 236.552 14.264C236.04 13.976 235.608 13.6453 235.256 13.272L236.584 11.432C236.851 11.7413 237.176 12.0187 237.56 12.264C237.955 12.4987 238.381 12.6853 238.84 12.824C239.309 12.9627 239.784 13.032 240.264 13.032C240.637 13.032 240.947 12.9947 241.192 12.92C241.448 12.8453 241.635 12.7333 241.752 12.584C241.869 12.4347 241.928 12.2587 241.928 12.056C241.928 11.832 241.848 11.6453 241.688 11.496C241.528 11.336 241.224 11.2027 240.776 11.096L238.824 10.664C238.227 10.5253 237.693 10.344 237.224 10.12C236.765 9.88533 236.403 9.576 236.136 9.192C235.869 8.79733 235.736 8.30667 235.736 7.72C235.736 7.05867 235.917 6.472 236.28 5.96C236.643 5.43733 237.165 5.02667 237.848 4.728C238.531 4.42933 239.347 4.28 240.296 4.28Z" fill="#74C69D"/>
<path d="M128.352 73.1562C128.247 73.0521 128.195 72.8307 128.195 72.4922C128.195 71.9714 128.247 71.7109 128.352 71.7109C128.56 71.7109 128.859 71.6719 129.25 71.5938C129.641 71.5156 130.005 71.4115 130.344 71.2812C130.682 71.125 130.878 70.9818 130.93 70.8516C131.086 70.2526 131.164 69.1068 131.164 67.4141V52.6484C131.164 51.1901 131.086 50.1745 130.93 49.6016C130.878 49.4453 130.669 49.2891 130.305 49.1328C129.966 48.9505 129.602 48.8073 129.211 48.7031C128.82 48.5729 128.521 48.5078 128.312 48.5078C128.208 48.5078 128.156 48.2734 128.156 47.8047C128.156 47.388 128.195 47.1406 128.273 47.0625C129.445 47.1146 130.513 47.1667 131.477 47.2188C132.44 47.2448 133.286 47.2578 134.016 47.2578C134.38 47.2578 134.771 47.2578 135.188 47.2578C135.63 47.2318 136.073 47.2057 136.516 47.1797C136.958 47.1536 137.388 47.1406 137.805 47.1406C138.221 47.1406 138.625 47.1406 139.016 47.1406C140.578 47.1406 142.023 47.349 143.352 47.7656C144.263 48.026 145.096 48.4688 145.852 49.0938C146.633 49.6927 147.258 50.4349 147.727 51.3203C148.195 52.1797 148.43 53.1693 148.43 54.2891C148.43 55.6953 148.052 56.9844 147.297 58.1562C146.568 59.3281 145.565 60.2786 144.289 61.0078C143.039 61.7109 141.633 62.0625 140.07 62.0625C139.549 62.0625 139.029 61.9844 138.508 61.8281C138.013 61.6719 137.674 61.4635 137.492 61.2031C137.388 61.0469 137.323 60.7604 137.297 60.3438C137.271 59.9271 137.323 59.7188 137.453 59.7188C137.818 59.9271 138.404 60.0312 139.211 60.0312C141.398 60.0312 142.492 58.2604 142.492 54.7188C142.492 51.151 141.294 49.3672 138.898 49.3672C137.987 49.3672 137.388 49.4714 137.102 49.6797C136.789 49.9141 136.633 51.1901 136.633 53.5078V67.4922C136.633 68.8724 136.724 69.9401 136.906 70.6953C136.958 70.9036 137.18 71.0859 137.57 71.2422C137.961 71.3984 138.391 71.5156 138.859 71.5938C139.328 71.6719 139.693 71.7109 139.953 71.7109C140.057 71.7109 140.109 71.9583 140.109 72.4531C140.109 72.7135 140.083 72.9479 140.031 73.1562C136.906 73 134.914 72.9219 134.055 72.9219L128.352 73.1562ZM159.68 73.2734C157.987 73.2734 156.438 72.8828 155.031 72.1016C153.651 71.2943 152.544 70.2266 151.711 68.8984C150.904 67.5443 150.5 66.0469 150.5 64.4062C150.5 62.7396 150.904 61.2422 151.711 59.9141C152.544 58.5859 153.651 57.5312 155.031 56.75C156.438 55.9427 157.987 55.5391 159.68 55.5391C161.398 55.5391 162.948 55.9427 164.328 56.75C165.708 57.5312 166.802 58.5859 167.609 59.9141C168.443 61.2422 168.859 62.7396 168.859 64.4062C168.859 66.0469 168.456 67.5443 167.648 68.8984C166.841 70.2266 165.734 71.2943 164.328 72.1016C162.948 72.8828 161.398 73.2734 159.68 73.2734ZM160.07 71.125C160.799 71.125 161.398 70.8776 161.867 70.3828C162.336 69.888 162.674 69.237 162.883 68.4297C163.117 67.5964 163.234 66.7109 163.234 65.7734C163.234 60.3828 161.867 57.6875 159.133 57.6875C158.404 57.6875 157.805 57.9479 157.336 58.4688C156.893 58.9896 156.568 59.6667 156.359 60.5C156.151 61.3333 156.047 62.2318 156.047 63.1953C156.047 68.4818 157.388 71.125 160.07 71.125ZM171.125 73.1562C171.021 73.0521 170.969 72.7786 170.969 72.3359C170.969 71.9193 171.021 71.7109 171.125 71.7109C171.333 71.7109 171.633 71.6589 172.023 71.5547C172.414 71.4245 172.779 71.2812 173.117 71.125C173.456 70.9688 173.638 70.8385 173.664 70.7344C173.846 70.0052 173.938 69.0156 173.938 67.7656V62.4141C173.938 60.9557 173.703 59.9792 173.234 59.4844C173.026 59.224 172.74 59.0417 172.375 58.9375C172.036 58.8333 171.737 58.7682 171.477 58.7422C171.216 58.6901 171.086 58.638 171.086 58.5859C171.086 57.6745 171.151 57.2188 171.281 57.2188C171.958 57.2188 172.896 57.0755 174.094 56.7891C175.318 56.4766 176.607 56.1771 177.961 55.8906L178.859 55.6953C178.99 55.6953 179.12 55.7865 179.25 55.9688C179.38 56.125 179.445 56.2552 179.445 56.3594C179.419 56.5156 179.38 56.8281 179.328 57.2969C179.302 57.7656 179.276 58.026 179.25 58.0781C180.552 56.3854 182.023 55.5391 183.664 55.5391C184.836 55.5391 185.956 56.0208 187.023 56.9844C187.023 58.3385 186.854 59.3411 186.516 59.9922C186.203 60.6432 185.617 60.9688 184.758 60.9688C184.237 60.9688 183.638 60.6693 182.961 60.0703C182.284 59.4714 181.685 59.1719 181.164 59.1719C180.643 59.1719 180.227 59.3802 179.914 59.7969C179.602 60.1875 179.367 60.6953 179.211 61.3203C179.081 61.9453 179.016 62.5964 179.016 63.2734V67.2188C179.016 68.9115 179.107 70.0833 179.289 70.7344C179.341 70.8385 179.523 70.9688 179.836 71.125C180.148 71.2812 180.487 71.4245 180.852 71.5547C181.216 71.6589 181.464 71.7109 181.594 71.7109C181.646 71.7109 181.685 71.8151 181.711 72.0234C181.737 72.2318 181.75 72.4531 181.75 72.6875C181.75 72.9219 181.724 73.0781 181.672 73.1562C181.464 73.1302 181.021 73.0911 180.344 73.0391C179.667 73.013 178.951 72.974 178.195 72.9219C177.466 72.8698 176.893 72.8438 176.477 72.8438C176.164 72.8438 175.734 72.8568 175.188 72.8828C174.667 72.9089 174.12 72.9479 173.547 73C172.974 73.026 172.466 73.0521 172.023 73.0781C171.581 73.1302 171.281 73.1562 171.125 73.1562ZM196.75 73.2734C195.318 73.2734 194.081 72.8307 193.039 71.9453C192.023 71.0339 191.516 69.5755 191.516 67.5703V58.5469H188.977C188.768 58.5469 188.664 58.1432 188.664 57.3359C188.664 57.1536 188.69 57.0104 188.742 56.9062C189.471 56.5417 190.122 56.1901 190.695 55.8516C191.294 55.487 191.815 55.1354 192.258 54.7969C193.404 53.8854 194.237 53.1953 194.758 52.7266C195.279 52.2578 195.552 52.0104 195.578 51.9844C195.786 51.9844 196.008 52.0365 196.242 52.1406C196.477 52.2188 196.594 52.3099 196.594 52.4141V56.2422H200.812C201.021 56.2422 201.125 56.3724 201.125 56.6328C201.125 57.4141 200.995 58.0521 200.734 58.5469H196.594V67.8047C196.594 69.7839 197.297 70.7734 198.703 70.7734C199.432 70.7734 199.94 70.6823 200.227 70.5C200.539 70.2917 200.747 70.1875 200.852 70.1875C200.956 70.1875 201.06 70.3177 201.164 70.5781C201.294 70.8385 201.359 71.0339 201.359 71.1641C201.359 71.3724 201.099 71.6458 200.578 71.9844C200.083 72.3229 199.471 72.6224 198.742 72.8828C198.039 73.1432 197.375 73.2734 196.75 73.2734ZM203.977 73.1562C203.872 73.0521 203.82 72.7786 203.82 72.3359C203.82 71.9193 203.872 71.7109 203.977 71.7109C204.185 71.7109 204.471 71.6589 204.836 71.5547C205.227 71.4245 205.591 71.2812 205.93 71.125C206.294 70.9688 206.49 70.8385 206.516 70.7344C206.698 70.0052 206.789 69.0156 206.789 67.7656V58.8203C206.789 58.638 206.724 58.5469 206.594 58.5469H203.977C203.898 58.5469 203.859 58.4688 203.859 58.3125C203.859 58.0781 203.924 57.8047 204.055 57.4922C204.211 57.1536 204.419 56.8542 204.68 56.5938C204.94 56.3333 205.214 56.2031 205.5 56.2031H206.594C206.724 56.2031 206.789 56.125 206.789 55.9688V55.6953C206.789 53.8724 207.167 52.2188 207.922 50.7344C208.677 49.25 209.706 48.0651 211.008 47.1797C212.336 46.2682 213.82 45.8125 215.461 45.8125C216.607 45.8125 217.596 45.9427 218.43 46.2031C219.289 46.4635 219.823 46.776 220.031 47.1406C220.109 47.6354 220.148 48.1562 220.148 48.7031C220.148 49.276 219.979 49.7969 219.641 50.2656C219.302 50.7083 218.82 50.9297 218.195 50.9297C217.648 50.9297 217.18 50.6953 216.789 50.2266C216.346 49.7318 215.943 49.276 215.578 48.8594C215.24 48.4427 214.81 48.2344 214.289 48.2344C213.456 48.2344 212.844 48.8333 212.453 50.0312C212.062 51.2292 211.867 52.7005 211.867 54.4453V56.0469C211.867 56.1771 211.932 56.2422 212.062 56.2422H216.398C216.529 56.2422 216.594 56.3333 216.594 56.5156C216.594 57.2448 216.438 57.9219 216.125 58.5469H212.102C211.945 58.5469 211.867 58.625 211.867 58.7812V67.1797C211.867 68.8984 211.958 70.0833 212.141 70.7344C212.193 70.8385 212.388 70.9688 212.727 71.125C213.065 71.2812 213.417 71.4245 213.781 71.5547C214.172 71.6589 214.445 71.7109 214.602 71.7109C214.654 71.7109 214.693 71.8151 214.719 72.0234C214.745 72.2318 214.758 72.4531 214.758 72.6875C214.758 72.9219 214.732 73.0781 214.68 73.1562C214.523 73.1562 214.224 73.1302 213.781 73.0781C213.339 73.0521 212.818 73.026 212.219 73C211.646 72.9479 211.099 72.9089 210.578 72.8828C210.057 72.8568 209.641 72.8438 209.328 72.8438C209.016 72.8438 208.586 72.8568 208.039 72.8828C207.518 72.9089 206.971 72.9479 206.398 73C205.826 73.026 205.318 73.0521 204.875 73.0781C204.432 73.1302 204.133 73.1562 203.977 73.1562ZM227.375 73.2734C225.682 73.2734 224.133 72.8828 222.727 72.1016C221.346 71.2943 220.24 70.2266 219.406 68.8984C218.599 67.5443 218.195 66.0469 218.195 64.4062C218.195 62.7396 218.599 61.2422 219.406 59.9141C220.24 58.5859 221.346 57.5312 222.727 56.75C224.133 55.9427 225.682 55.5391 227.375 55.5391C229.094 55.5391 230.643 55.9427 232.023 56.75C233.404 57.5312 234.497 58.5859 235.305 59.9141C236.138 61.2422 236.555 62.7396 236.555 64.4062C236.555 66.0469 236.151 67.5443 235.344 68.8984C234.536 70.2266 233.43 71.2943 232.023 72.1016C230.643 72.8828 229.094 73.2734 227.375 73.2734ZM227.766 71.125C228.495 71.125 229.094 70.8776 229.562 70.3828C230.031 69.888 230.37 69.237 230.578 68.4297C230.812 67.5964 230.93 66.7109 230.93 65.7734C230.93 60.3828 229.562 57.6875 226.828 57.6875C226.099 57.6875 225.5 57.9479 225.031 58.4688C224.589 58.9896 224.263 59.6667 224.055 60.5C223.846 61.3333 223.742 62.2318 223.742 63.1953C223.742 68.4818 225.083 71.125 227.766 71.125ZM238.781 73.1562C238.677 73.0521 238.625 72.7786 238.625 72.3359C238.625 71.9193 238.677 71.7109 238.781 71.7109C238.99 71.7109 239.289 71.6589 239.68 71.5547C240.07 71.4245 240.435 71.2812 240.773 71.125C241.112 70.9688 241.294 70.8385 241.32 70.7344C241.503 70.0052 241.594 69.0156 241.594 67.7656V52.2578C241.594 51.6589 241.568 51.125 241.516 50.6562C241.49 50.1875 241.451 49.7839 241.398 49.4453C241.294 49.0286 240.617 48.8203 239.367 48.8203H239.016C238.859 48.8203 238.781 48.5599 238.781 48.0391C238.781 47.5964 238.859 47.375 239.016 47.375C240.526 47.2448 241.945 47.0234 243.273 46.7109C244.628 46.3984 245.591 46.151 246.164 45.9688L246.555 45.8516H246.633C246.737 45.8516 246.841 45.9297 246.945 46.0859C247.049 46.2422 247.115 46.3854 247.141 46.5156C246.854 47.7396 246.711 49.0547 246.711 50.4609L246.672 67.1797C246.672 68.8984 246.763 70.0833 246.945 70.7344C246.997 70.8385 247.193 70.9688 247.531 71.125C247.87 71.2812 248.221 71.4245 248.586 71.5547C248.977 71.6589 249.25 71.7109 249.406 71.7109C249.458 71.7109 249.497 71.8151 249.523 72.0234C249.549 72.2318 249.562 72.4531 249.562 72.6875C249.562 72.9219 249.536 73.0781 249.484 73.1562C249.328 73.1562 249.029 73.1302 248.586 73.0781C248.143 73.0521 247.622 73.026 247.023 73C246.451 72.9479 245.904 72.9089 245.383 72.8828C244.862 72.8568 244.445 72.8438 244.133 72.8438C243.82 72.8438 243.391 72.8568 242.844 72.8828C242.323 72.9089 241.776 72.9479 241.203 73C240.63 73.026 240.122 73.0521 239.68 73.0781C239.237 73.1302 238.938 73.1562 238.781 73.1562ZM251.906 73.1562C251.802 73.0521 251.75 72.8047 251.75 72.4141C251.75 72.0234 251.802 71.8281 251.906 71.8281C252.115 71.8281 252.388 71.776 252.727 71.6719C253.065 71.5677 253.391 71.4375 253.703 71.2812C254.016 71.125 254.185 70.9818 254.211 70.8516C254.393 70.1224 254.484 69.1328 254.484 67.8828V62.1797C254.484 60.7214 254.25 59.7448 253.781 59.25C253.573 58.9896 253.286 58.8073 252.922 58.7031C252.583 58.599 252.284 58.5339 252.023 58.5078C251.763 58.4557 251.633 58.4036 251.633 58.3516C251.633 57.5964 251.698 57.2188 251.828 57.2188C252.062 57.2188 252.492 57.1667 253.117 57.0625C253.742 56.9583 254.432 56.8281 255.188 56.6719C255.969 56.5156 256.698 56.3594 257.375 56.2031C258.078 56.0469 258.612 55.9167 258.977 55.8125L259.406 55.6953C259.536 55.6953 259.667 55.7865 259.797 55.9688C259.927 56.125 259.992 56.2552 259.992 56.3594C259.862 57.5052 259.758 58.4036 259.68 59.0547C259.602 59.7057 259.562 60.1094 259.562 60.2656V67.2969C259.562 68.7812 259.667 69.9661 259.875 70.8516C259.927 70.9557 260.096 71.0859 260.383 71.2422C260.695 71.3984 261.021 71.5417 261.359 71.6719C261.698 71.776 261.932 71.8281 262.062 71.8281C262.141 71.8281 262.18 72.0234 262.18 72.4141C262.206 72.8047 262.193 73.0521 262.141 73.1562C261.932 73.1302 261.49 73.0911 260.812 73.0391C260.161 73.013 259.471 72.974 258.742 72.9219C258.013 72.8698 257.44 72.8438 257.023 72.8438C256.607 72.8438 256.034 72.8698 255.305 72.9219C254.576 72.974 253.885 73.013 253.234 73.0391C252.583 73.0911 252.141 73.1302 251.906 73.1562ZM256.828 51.8281C256.021 51.8281 255.331 51.5547 254.758 51.0078C254.211 50.4349 253.938 49.7448 253.938 48.9375C253.938 48.1302 254.211 47.4531 254.758 46.9062C255.331 46.3333 256.021 46.0469 256.828 46.0469C257.635 46.0469 258.312 46.3333 258.859 46.9062C259.432 47.4531 259.719 48.1302 259.719 48.9375C259.719 49.7448 259.432 50.4349 258.859 51.0078C258.312 51.5547 257.635 51.8281 256.828 51.8281ZM273.625 73.2734C271.932 73.2734 270.383 72.8828 268.977 72.1016C267.596 71.2943 266.49 70.2266 265.656 68.8984C264.849 67.5443 264.445 66.0469 264.445 64.4062C264.445 62.7396 264.849 61.2422 265.656 59.9141C266.49 58.5859 267.596 57.5312 268.977 56.75C270.383 55.9427 271.932 55.5391 273.625 55.5391C275.344 55.5391 276.893 55.9427 278.273 56.75C279.654 57.5312 280.747 58.5859 281.555 59.9141C282.388 61.2422 282.805 62.7396 282.805 64.4062C282.805 66.0469 282.401 67.5443 281.594 68.8984C280.786 70.2266 279.68 71.2943 278.273 72.1016C276.893 72.8828 275.344 73.2734 273.625 73.2734ZM274.016 71.125C274.745 71.125 275.344 70.8776 275.812 70.3828C276.281 69.888 276.62 69.237 276.828 68.4297C277.062 67.5964 277.18 66.7109 277.18 65.7734C277.18 60.3828 275.812 57.6875 273.078 57.6875C272.349 57.6875 271.75 57.9479 271.281 58.4688C270.839 58.9896 270.513 59.6667 270.305 60.5C270.096 61.3333 269.992 62.2318 269.992 63.1953C269.992 68.4818 271.333 71.125 274.016 71.125Z" fill="black"/>
<path d="M4.22094 119.5H11.7809V121H2.62094V107.8H4.22094V119.5ZM18.1211 110.8C19.0678 110.8 19.9011 111.007 20.6211 111.42C21.3544 111.833 21.9278 112.433 22.3411 113.22C22.7544 113.993 22.9611 114.92 22.9611 116C22.9611 117.08 22.7544 118.013 22.3411 118.8C21.9278 119.573 21.3544 120.167 20.6211 120.58C19.9011 120.993 19.0678 121.2 18.1211 121.2C17.1878 121.2 16.3544 120.993 15.6211 120.58C14.8878 120.167 14.3144 119.573 13.9011 118.8C13.4878 118.013 13.2811 117.08 13.2811 116C13.2811 114.92 13.4878 113.993 13.9011 113.22C14.3144 112.433 14.8878 111.833 15.6211 111.42C16.3544 111.007 17.1878 110.8 18.1211 110.8ZM18.1211 112.18C17.4411 112.18 16.8611 112.333 16.3811 112.64C15.9011 112.947 15.5278 113.387 15.2611 113.96C15.0078 114.52 14.8811 115.2 14.8811 116C14.8811 116.787 15.0078 117.467 15.2611 118.04C15.5278 118.613 15.9011 119.053 16.3811 119.36C16.8611 119.667 17.4411 119.82 18.1211 119.82C18.8011 119.82 19.3811 119.667 19.8611 119.36C20.3411 119.053 20.7078 118.613 20.9611 118.04C21.2278 117.467 21.3611 116.787 21.3611 116C21.3611 115.2 21.2278 114.52 20.9611 113.96C20.7078 113.387 20.3411 112.947 19.8611 112.64C19.3811 112.333 18.8011 112.18 18.1211 112.18ZM25.9733 121V111H27.2733L27.4933 112.64C27.7733 112.027 28.1799 111.567 28.7133 111.26C29.2599 110.953 29.9199 110.8 30.6933 110.8C30.8666 110.8 31.0533 110.813 31.2533 110.84C31.4666 110.867 31.6466 110.92 31.7933 111L31.5133 112.46C31.3666 112.407 31.2066 112.367 31.0333 112.34C30.8599 112.313 30.6133 112.3 30.2933 112.3C29.8799 112.3 29.4599 112.42 29.0333 112.66C28.6199 112.9 28.2733 113.267 27.9933 113.76C27.7133 114.24 27.5733 114.853 27.5733 115.6V121H25.9733ZM38.0048 121.2C37.0582 121.2 36.2115 120.993 35.4648 120.58C34.7315 120.167 34.1582 119.573 33.7448 118.8C33.3315 118.013 33.1248 117.08 33.1248 116C33.1248 114.92 33.3315 113.993 33.7448 113.22C34.1582 112.433 34.7248 111.833 35.4448 111.42C36.1648 111.007 36.9848 110.8 37.9048 110.8C38.8382 110.8 39.6315 111 40.2848 111.4C40.9515 111.8 41.4582 112.347 41.8048 113.04C42.1515 113.72 42.3248 114.487 42.3248 115.34C42.3248 115.567 42.3182 115.773 42.3048 115.96C42.2915 116.147 42.2715 116.313 42.2448 116.46H34.1648V115.04H41.5448L40.7248 115.2C40.7248 114.24 40.4582 113.5 39.9248 112.98C39.4048 112.46 38.7182 112.2 37.8648 112.2C37.2115 112.2 36.6448 112.353 36.1648 112.66C35.6982 112.953 35.3315 113.387 35.0648 113.96C34.8115 114.52 34.6848 115.2 34.6848 116C34.6848 116.787 34.8182 117.467 35.0848 118.04C35.3515 118.613 35.7248 119.053 36.2048 119.36C36.6982 119.653 37.2848 119.8 37.9648 119.8C38.6982 119.8 39.2915 119.66 39.7448 119.38C40.2115 119.1 40.5848 118.72 40.8648 118.24L42.1248 118.98C41.8715 119.433 41.5448 119.827 41.1448 120.16C40.7582 120.493 40.2982 120.753 39.7648 120.94C39.2448 121.113 38.6582 121.2 38.0048 121.2ZM45.3678 121V111H46.7678L46.8678 112.56C47.2278 111.947 47.6945 111.5 48.2678 111.22C48.8545 110.94 49.4545 110.8 50.0678 110.8C50.7745 110.8 51.4411 110.96 52.0678 111.28C52.6945 111.6 53.1745 112.093 53.5078 112.76C53.7211 112.307 54.0211 111.94 54.4078 111.66C54.7945 111.367 55.2145 111.153 55.6678 111.02C56.1345 110.873 56.5745 110.8 56.9878 110.8C57.6278 110.8 58.2345 110.933 58.8078 111.2C59.3945 111.467 59.8745 111.88 60.2478 112.44C60.6211 113 60.8078 113.72 60.8078 114.6V121H59.2078V114.76C59.2078 113.853 58.9811 113.2 58.5278 112.8C58.0745 112.4 57.5145 112.2 56.8478 112.2C56.3278 112.2 55.8411 112.327 55.3878 112.58C54.9345 112.833 54.5678 113.207 54.2878 113.7C54.0211 114.193 53.8878 114.8 53.8878 115.52V121H52.2878V114.76C52.2878 113.853 52.0611 113.2 51.6078 112.8C51.1545 112.4 50.5945 112.2 49.9278 112.2C49.4878 112.2 49.0345 112.32 48.5678 112.56C48.1145 112.787 47.7345 113.153 47.4278 113.66C47.1211 114.167 46.9678 114.833 46.9678 115.66V121H45.3678ZM72.0467 109.08C71.6867 109.08 71.3934 108.973 71.1667 108.76C70.9534 108.533 70.8467 108.24 70.8467 107.88C70.8467 107.52 70.9534 107.233 71.1667 107.02C71.3934 106.793 71.6867 106.68 72.0467 106.68C72.4067 106.68 72.6934 106.793 72.9067 107.02C73.1334 107.233 73.2467 107.52 73.2467 107.88C73.2467 108.24 73.1334 108.533 72.9067 108.76C72.6934 108.973 72.4067 109.08 72.0467 109.08ZM72.8467 111V121H71.2467V111H72.8467ZM76.5592 125.2V111H77.9592L78.0992 113.44L77.8792 113.16C78.0526 112.693 78.3126 112.287 78.6592 111.94C79.0059 111.58 79.4259 111.3 79.9192 111.1C80.4126 110.9 80.9459 110.8 81.5192 110.8C82.3326 110.8 83.0792 111.007 83.7592 111.42C84.4526 111.833 85.0059 112.427 85.4192 113.2C85.8326 113.973 86.0392 114.907 86.0392 116C86.0392 117.08 85.8259 118.013 85.3992 118.8C84.9859 119.573 84.4326 120.167 83.7392 120.58C83.0459 120.993 82.2859 121.2 81.4592 121.2C80.6326 121.2 79.9059 121 79.2792 120.6C78.6659 120.187 78.2259 119.667 77.9592 119.04L78.1592 118.74V125.2H76.5592ZM81.2992 119.8C82.2859 119.8 83.0526 119.453 83.5992 118.76C84.1592 118.067 84.4392 117.147 84.4392 116C84.4392 114.853 84.1659 113.933 83.6192 113.24C83.0859 112.547 82.3326 112.2 81.3592 112.2C80.7192 112.2 80.1592 112.36 79.6792 112.68C79.1992 112.987 78.8259 113.427 78.5592 114C78.2926 114.56 78.1592 115.227 78.1592 116C78.1592 116.76 78.2859 117.427 78.5392 118C78.8059 118.573 79.1726 119.02 79.6392 119.34C80.1192 119.647 80.6726 119.8 81.2992 119.8ZM92.6983 121.2C91.7249 121.2 90.8249 120.993 89.9983 120.58C89.1849 120.167 88.5583 119.58 88.1183 118.82L89.4783 117.84C89.7716 118.453 90.1983 118.933 90.7583 119.28C91.3316 119.627 92.0183 119.8 92.8183 119.8C93.5249 119.8 94.0783 119.667 94.4783 119.4C94.8783 119.12 95.0783 118.76 95.0783 118.32C95.0783 118.04 94.9849 117.787 94.7983 117.56C94.6249 117.32 94.2849 117.147 93.7783 117.04L91.3783 116.54C90.4049 116.34 89.7049 116.007 89.2783 115.54C88.8649 115.073 88.6583 114.493 88.6583 113.8C88.6583 113.253 88.8116 112.753 89.1183 112.3C89.4383 111.847 89.8849 111.487 90.4583 111.22C91.0449 110.94 91.7316 110.8 92.5183 110.8C93.5049 110.8 94.3383 110.993 95.0183 111.38C95.6983 111.767 96.2049 112.313 96.5383 113.02L95.1983 113.9C94.9716 113.313 94.6049 112.887 94.0983 112.62C93.5916 112.34 93.0649 112.2 92.5183 112.2C92.0383 112.2 91.6249 112.267 91.2783 112.4C90.9449 112.533 90.6849 112.72 90.4983 112.96C90.3249 113.187 90.2383 113.447 90.2383 113.74C90.2383 114.033 90.3383 114.307 90.5383 114.56C90.7383 114.8 91.1116 114.973 91.6583 115.08L94.1583 115.6C95.0916 115.787 95.7449 116.093 96.1183 116.52C96.4916 116.947 96.6783 117.467 96.6783 118.08C96.6783 118.707 96.5116 119.26 96.1783 119.74C95.8449 120.207 95.3783 120.567 94.7783 120.82C94.1783 121.073 93.4849 121.2 92.6983 121.2ZM103.265 121.2C102.625 121.2 102.018 121.08 101.445 120.84C100.885 120.6 100.425 120.213 100.065 119.68C99.7185 119.133 99.5452 118.427 99.5452 117.56V111H101.145V117.14C101.145 118.153 101.365 118.853 101.805 119.24C102.245 119.613 102.865 119.8 103.665 119.8C104.038 119.8 104.405 119.74 104.765 119.62C105.125 119.487 105.445 119.287 105.725 119.02C106.018 118.74 106.245 118.387 106.405 117.96C106.578 117.533 106.665 117.027 106.665 116.44V111H108.265V121H106.865L106.765 119.48C106.418 120.08 105.945 120.52 105.345 120.8C104.758 121.067 104.065 121.2 103.265 121.2ZM111.989 121V111H113.389L113.489 112.56C113.849 111.947 114.316 111.5 114.889 111.22C115.476 110.94 116.076 110.8 116.689 110.8C117.396 110.8 118.062 110.96 118.689 111.28C119.316 111.6 119.796 112.093 120.129 112.76C120.342 112.307 120.642 111.94 121.029 111.66C121.416 111.367 121.836 111.153 122.289 111.02C122.756 110.873 123.196 110.8 123.609 110.8C124.249 110.8 124.856 110.933 125.429 111.2C126.016 111.467 126.496 111.88 126.869 112.44C127.242 113 127.429 113.72 127.429 114.6V121H125.829V114.76C125.829 113.853 125.602 113.2 125.149 112.8C124.696 112.4 124.136 112.2 123.469 112.2C122.949 112.2 122.462 112.327 122.009 112.58C121.556 112.833 121.189 113.207 120.909 113.7C120.642 114.193 120.509 114.8 120.509 115.52V121H118.909V114.76C118.909 113.853 118.682 113.2 118.229 112.8C117.776 112.4 117.216 112.2 116.549 112.2C116.109 112.2 115.656 112.32 115.189 112.56C114.736 112.787 114.356 113.153 114.049 113.66C113.742 114.167 113.589 114.833 113.589 115.66V121H111.989ZM131.851 118.6C132.171 118.6 132.438 118.687 132.651 118.86C132.878 119.02 133.051 119.247 133.171 119.54C133.291 119.82 133.351 120.153 133.351 120.54C133.351 120.98 133.271 121.413 133.111 121.84C132.965 122.267 132.731 122.66 132.411 123.02C132.091 123.38 131.678 123.68 131.171 123.92L130.331 123.14C130.691 123.02 131.005 122.853 131.271 122.64C131.551 122.427 131.778 122.187 131.951 121.92C132.125 121.653 132.238 121.38 132.291 121.1L132.211 121.06C132.158 121.1 132.091 121.133 132.011 121.16C131.931 121.187 131.811 121.2 131.651 121.2C131.491 121.2 131.325 121.153 131.151 121.06C130.991 120.967 130.851 120.833 130.731 120.66C130.611 120.473 130.551 120.233 130.551 119.94C130.551 119.7 130.611 119.48 130.731 119.28C130.851 119.067 131.005 118.9 131.191 118.78C131.391 118.66 131.611 118.6 131.851 118.6ZM147.08 121.2C146.254 121.2 145.494 120.993 144.8 120.58C144.107 120.167 143.554 119.573 143.14 118.8C142.727 118.013 142.52 117.08 142.52 116C142.52 114.893 142.74 113.953 143.18 113.18C143.62 112.407 144.2 111.82 144.92 111.42C145.64 111.007 146.414 110.8 147.24 110.8C148.067 110.8 148.78 111.013 149.38 111.44C149.994 111.867 150.4 112.433 150.6 113.14L150.4 113.28V106.4H152V121H150.6L150.46 118.58L150.68 118.46C150.587 119.047 150.36 119.547 150 119.96C149.654 120.36 149.22 120.667 148.7 120.88C148.194 121.093 147.654 121.2 147.08 121.2ZM147.24 119.8C147.88 119.8 148.434 119.64 148.9 119.32C149.38 119 149.747 118.547 150 117.96C150.267 117.36 150.4 116.66 150.4 115.86C150.4 115.1 150.267 114.447 150 113.9C149.747 113.353 149.387 112.933 148.92 112.64C148.467 112.347 147.934 112.2 147.32 112.2C146.307 112.2 145.52 112.547 144.96 113.24C144.4 113.933 144.12 114.853 144.12 116C144.12 117.147 144.394 118.067 144.94 118.76C145.487 119.453 146.254 119.8 147.24 119.8ZM159.859 110.8C160.806 110.8 161.639 111.007 162.359 111.42C163.093 111.833 163.666 112.433 164.079 113.22C164.493 113.993 164.699 114.92 164.699 116C164.699 117.08 164.493 118.013 164.079 118.8C163.666 119.573 163.093 120.167 162.359 120.58C161.639 120.993 160.806 121.2 159.859 121.2C158.926 121.2 158.093 120.993 157.359 120.58C156.626 120.167 156.053 119.573 155.639 118.8C155.226 118.013 155.019 117.08 155.019 116C155.019 114.92 155.226 113.993 155.639 113.22C156.053 112.433 156.626 111.833 157.359 111.42C158.093 111.007 158.926 110.8 159.859 110.8ZM159.859 112.18C159.179 112.18 158.599 112.333 158.119 112.64C157.639 112.947 157.266 113.387 156.999 113.96C156.746 114.52 156.619 115.2 156.619 116C156.619 116.787 156.746 117.467 156.999 118.04C157.266 118.613 157.639 119.053 158.119 119.36C158.599 119.667 159.179 119.82 159.859 119.82C160.539 119.82 161.119 119.667 161.599 119.36C162.079 119.053 162.446 118.613 162.699 118.04C162.966 117.467 163.099 116.787 163.099 116C163.099 115.2 162.966 114.52 162.699 113.96C162.446 113.387 162.079 112.947 161.599 112.64C161.119 112.333 160.539 112.18 159.859 112.18ZM169.232 106.4V118.46C169.232 118.967 169.325 119.32 169.512 119.52C169.698 119.707 169.998 119.8 170.412 119.8C170.678 119.8 170.898 119.78 171.072 119.74C171.245 119.7 171.478 119.627 171.772 119.52L171.512 120.92C171.298 121.013 171.065 121.08 170.812 121.12C170.558 121.173 170.298 121.2 170.032 121.2C169.218 121.2 168.612 120.98 168.212 120.54C167.825 120.1 167.632 119.427 167.632 118.52V106.4H169.232ZM177.965 110.8C178.912 110.8 179.745 111.007 180.465 111.42C181.198 111.833 181.772 112.433 182.185 113.22C182.598 113.993 182.805 114.92 182.805 116C182.805 117.08 182.598 118.013 182.185 118.8C181.772 119.573 181.198 120.167 180.465 120.58C179.745 120.993 178.912 121.2 177.965 121.2C177.032 121.2 176.198 120.993 175.465 120.58C174.732 120.167 174.158 119.573 173.745 118.8C173.332 118.013 173.125 117.08 173.125 116C173.125 114.92 173.332 113.993 173.745 113.22C174.158 112.433 174.732 111.833 175.465 111.42C176.198 111.007 177.032 110.8 177.965 110.8ZM177.965 112.18C177.285 112.18 176.705 112.333 176.225 112.64C175.745 112.947 175.372 113.387 175.105 113.96C174.852 114.52 174.725 115.2 174.725 116C174.725 116.787 174.852 117.467 175.105 118.04C175.372 118.613 175.745 119.053 176.225 119.36C176.705 119.667 177.285 119.82 177.965 119.82C178.645 119.82 179.225 119.667 179.705 119.36C180.185 119.053 180.552 118.613 180.805 118.04C181.072 117.467 181.205 116.787 181.205 116C181.205 115.2 181.072 114.52 180.805 113.96C180.552 113.387 180.185 112.947 179.705 112.64C179.225 112.333 178.645 112.18 177.965 112.18ZM185.817 121V111H187.117L187.337 112.64C187.617 112.027 188.024 111.567 188.557 111.26C189.104 110.953 189.764 110.8 190.537 110.8C190.71 110.8 190.897 110.813 191.097 110.84C191.31 110.867 191.49 110.92 191.637 111L191.357 112.46C191.21 112.407 191.05 112.367 190.877 112.34C190.704 112.313 190.457 112.3 190.137 112.3C189.724 112.3 189.304 112.42 188.877 112.66C188.464 112.9 188.117 113.267 187.837 113.76C187.557 114.24 187.417 114.853 187.417 115.6V121H185.817ZM203.929 121.2C202.955 121.2 202.055 120.993 201.229 120.58C200.415 120.167 199.789 119.58 199.349 118.82L200.709 117.84C201.002 118.453 201.429 118.933 201.989 119.28C202.562 119.627 203.249 119.8 204.049 119.8C204.755 119.8 205.309 119.667 205.709 119.4C206.109 119.12 206.309 118.76 206.309 118.32C206.309 118.04 206.215 117.787 206.029 117.56C205.855 117.32 205.515 117.147 205.009 117.04L202.609 116.54C201.635 116.34 200.935 116.007 200.509 115.54C200.095 115.073 199.889 114.493 199.889 113.8C199.889 113.253 200.042 112.753 200.349 112.3C200.669 111.847 201.115 111.487 201.689 111.22C202.275 110.94 202.962 110.8 203.749 110.8C204.735 110.8 205.569 110.993 206.249 111.38C206.929 111.767 207.435 112.313 207.769 113.02L206.429 113.9C206.202 113.313 205.835 112.887 205.329 112.62C204.822 112.34 204.295 112.2 203.749 112.2C203.269 112.2 202.855 112.267 202.509 112.4C202.175 112.533 201.915 112.72 201.729 112.96C201.555 113.187 201.469 113.447 201.469 113.74C201.469 114.033 201.569 114.307 201.769 114.56C201.969 114.8 202.342 114.973 202.889 115.08L205.389 115.6C206.322 115.787 206.975 116.093 207.349 116.52C207.722 116.947 207.909 117.467 207.909 118.08C207.909 118.707 207.742 119.26 207.409 119.74C207.075 120.207 206.609 120.567 206.009 120.82C205.409 121.073 204.715 121.2 203.929 121.2ZM211.676 109.08C211.316 109.08 211.022 108.973 210.796 108.76C210.582 108.533 210.476 108.24 210.476 107.88C210.476 107.52 210.582 107.233 210.796 107.02C211.022 106.793 211.316 106.68 211.676 106.68C212.036 106.68 212.322 106.793 212.536 107.02C212.762 107.233 212.876 107.52 212.876 107.88C212.876 108.24 212.762 108.533 212.536 108.76C212.322 108.973 212.036 109.08 211.676 109.08ZM212.476 111V121H210.876V111H212.476ZM218.548 108.16V118.24C218.548 118.733 218.688 119.1 218.968 119.34C219.248 119.58 219.608 119.7 220.048 119.7C220.435 119.7 220.768 119.633 221.048 119.5C221.328 119.367 221.581 119.187 221.808 118.96L222.368 120.3C222.061 120.58 221.695 120.8 221.268 120.96C220.855 121.12 220.375 121.2 219.828 121.2C219.321 121.2 218.848 121.113 218.408 120.94C217.968 120.753 217.615 120.467 217.348 120.08C217.095 119.68 216.961 119.16 216.948 118.52V108.6L218.548 108.16ZM222.188 111V112.38H214.948V111H222.188ZM237.223 114.54C237.223 113.793 237.023 113.22 236.623 112.82C236.223 112.407 235.657 112.2 234.923 112.2C234.23 112.2 233.643 112.353 233.163 112.66C232.683 112.953 232.33 113.433 232.103 114.1L230.803 113.3C231.07 112.553 231.563 111.953 232.283 111.5C233.003 111.033 233.897 110.8 234.963 110.8C235.683 110.8 236.337 110.927 236.923 111.18C237.51 111.42 237.97 111.793 238.303 112.3C238.65 112.793 238.823 113.433 238.823 114.22V119.06C238.823 119.54 239.077 119.78 239.583 119.78C239.837 119.78 240.083 119.747 240.323 119.68L240.243 120.94C239.977 121.073 239.63 121.14 239.203 121.14C238.817 121.14 238.47 121.067 238.163 120.92C237.857 120.773 237.617 120.553 237.443 120.26C237.27 119.953 237.183 119.573 237.183 119.12V118.92L237.583 118.98C237.423 119.5 237.15 119.927 236.763 120.26C236.377 120.58 235.943 120.82 235.463 120.98C234.983 121.127 234.51 121.2 234.043 121.2C233.457 121.2 232.91 121.1 232.403 120.9C231.897 120.7 231.49 120.4 231.183 120C230.89 119.587 230.743 119.08 230.743 118.48C230.743 117.733 230.99 117.12 231.483 116.64C231.99 116.147 232.69 115.813 233.583 115.64L237.543 114.86V116.18L234.323 116.84C233.67 116.973 233.183 117.16 232.863 117.4C232.543 117.64 232.383 117.973 232.383 118.4C232.383 118.813 232.543 119.153 232.863 119.42C233.197 119.673 233.663 119.8 234.263 119.8C234.65 119.8 235.017 119.753 235.363 119.66C235.723 119.553 236.043 119.4 236.323 119.2C236.603 118.987 236.823 118.727 236.983 118.42C237.143 118.1 237.223 117.727 237.223 117.3V114.54ZM242.712 121V111H244.112L244.212 112.56C244.572 111.947 245.038 111.5 245.612 111.22C246.198 110.94 246.798 110.8 247.412 110.8C248.118 110.8 248.785 110.96 249.412 111.28C250.038 111.6 250.518 112.093 250.852 112.76C251.065 112.307 251.365 111.94 251.752 111.66C252.138 111.367 252.558 111.153 253.012 111.02C253.478 110.873 253.918 110.8 254.332 110.8C254.972 110.8 255.578 110.933 256.152 111.2C256.738 111.467 257.218 111.88 257.592 112.44C257.965 113 258.152 113.72 258.152 114.6V121H256.552V114.76C256.552 113.853 256.325 113.2 255.872 112.8C255.418 112.4 254.858 112.2 254.192 112.2C253.672 112.2 253.185 112.327 252.732 112.58C252.278 112.833 251.912 113.207 251.632 113.7C251.365 114.193 251.232 114.8 251.232 115.52V121H249.632V114.76C249.632 113.853 249.405 113.2 248.952 112.8C248.498 112.4 247.938 112.2 247.272 112.2C246.832 112.2 246.378 112.32 245.912 112.56C245.458 112.787 245.078 113.153 244.772 113.66C244.465 114.167 244.312 114.833 244.312 115.66V121H242.712ZM265.954 121.2C265.007 121.2 264.161 120.993 263.414 120.58C262.681 120.167 262.107 119.573 261.694 118.8C261.281 118.013 261.074 117.08 261.074 116C261.074 114.92 261.281 113.993 261.694 113.22C262.107 112.433 262.674 111.833 263.394 111.42C264.114 111.007 264.934 110.8 265.854 110.8C266.787 110.8 267.581 111 268.234 111.4C268.901 111.8 269.407 112.347 269.754 113.04C270.101 113.72 270.274 114.487 270.274 115.34C270.274 115.567 270.267 115.773 270.254 115.96C270.241 116.147 270.221 116.313 270.194 116.46H262.114V115.04H269.494L268.674 115.2C268.674 114.24 268.407 113.5 267.874 112.98C267.354 112.46 266.667 112.2 265.814 112.2C265.161 112.2 264.594 112.353 264.114 112.66C263.647 112.953 263.281 113.387 263.014 113.96C262.761 114.52 262.634 115.2 262.634 116C262.634 116.787 262.767 117.467 263.034 118.04C263.301 118.613 263.674 119.053 264.154 119.36C264.647 119.653 265.234 119.8 265.914 119.8C266.647 119.8 267.241 119.66 267.694 119.38C268.161 119.1 268.534 118.72 268.814 118.24L270.074 118.98C269.821 119.433 269.494 119.827 269.094 120.16C268.707 120.493 268.247 120.753 267.714 120.94C267.194 121.113 266.607 121.2 265.954 121.2ZM275.384 108.16V118.24C275.384 118.733 275.524 119.1 275.804 119.34C276.084 119.58 276.444 119.7 276.884 119.7C277.271 119.7 277.604 119.633 277.884 119.5C278.164 119.367 278.417 119.187 278.644 118.96L279.204 120.3C278.897 120.58 278.531 120.8 278.104 120.96C277.691 121.12 277.211 121.2 276.664 121.2C276.157 121.2 275.684 121.113 275.244 120.94C274.804 120.753 274.451 120.467 274.184 120.08C273.931 119.68 273.797 119.16 273.784 118.52V108.6L275.384 108.16ZM279.024 111V112.38H271.784V111H279.024ZM292.359 110.8C293.053 110.8 293.659 110.907 294.179 111.12C294.713 111.333 295.173 111.64 295.559 112.04C295.946 112.44 296.259 112.913 296.499 113.46L294.979 114.18C294.766 113.54 294.439 113.053 293.999 112.72C293.573 112.373 293.013 112.2 292.319 112.2C291.653 112.2 291.079 112.353 290.599 112.66C290.119 112.953 289.753 113.387 289.499 113.96C289.246 114.52 289.119 115.2 289.119 116C289.119 116.787 289.246 117.467 289.499 118.04C289.753 118.613 290.119 119.053 290.599 119.36C291.079 119.653 291.653 119.8 292.319 119.8C292.839 119.8 293.286 119.72 293.659 119.56C294.046 119.4 294.359 119.167 294.599 118.86C294.853 118.553 295.026 118.18 295.119 117.74L296.599 118.26C296.373 118.873 296.059 119.4 295.659 119.84C295.273 120.28 294.799 120.62 294.239 120.86C293.693 121.087 293.066 121.2 292.359 121.2C291.426 121.2 290.593 120.993 289.859 120.58C289.126 120.167 288.553 119.573 288.139 118.8C287.726 118.013 287.519 117.08 287.519 116C287.519 114.92 287.726 113.993 288.139 113.22C288.553 112.433 289.126 111.833 289.859 111.42C290.593 111.007 291.426 110.8 292.359 110.8ZM303.551 110.8C304.497 110.8 305.331 111.007 306.051 111.42C306.784 111.833 307.357 112.433 307.771 113.22C308.184 113.993 308.391 114.92 308.391 116C308.391 117.08 308.184 118.013 307.771 118.8C307.357 119.573 306.784 120.167 306.051 120.58C305.331 120.993 304.497 121.2 303.551 121.2C302.617 121.2 301.784 120.993 301.051 120.58C300.317 120.167 299.744 119.573 299.331 118.8C298.917 118.013 298.711 117.08 298.711 116C298.711 114.92 298.917 113.993 299.331 113.22C299.744 112.433 300.317 111.833 301.051 111.42C301.784 111.007 302.617 110.8 303.551 110.8ZM303.551 112.18C302.871 112.18 302.291 112.333 301.811 112.64C301.331 112.947 300.957 113.387 300.691 113.96C300.437 114.52 300.311 115.2 300.311 116C300.311 116.787 300.437 117.467 300.691 118.04C300.957 118.613 301.331 119.053 301.811 119.36C302.291 119.667 302.871 119.82 303.551 119.82C304.231 119.82 304.811 119.667 305.291 119.36C305.771 119.053 306.137 118.613 306.391 118.04C306.657 117.467 306.791 116.787 306.791 116C306.791 115.2 306.657 114.52 306.391 113.96C306.137 113.387 305.771 112.947 305.291 112.64C304.811 112.333 304.231 112.18 303.551 112.18ZM311.403 121V111H312.803L312.943 113.24L312.683 113.02C312.896 112.487 313.183 112.06 313.543 111.74C313.903 111.407 314.316 111.167 314.783 111.02C315.263 110.873 315.756 110.8 316.263 110.8C316.983 110.8 317.636 110.94 318.223 111.22C318.81 111.487 319.276 111.9 319.623 112.46C319.983 113.02 320.163 113.733 320.163 114.6V121H318.563V115.16C318.563 114.053 318.323 113.287 317.843 112.86C317.376 112.42 316.796 112.2 316.103 112.2C315.623 112.2 315.143 112.313 314.663 112.54C314.183 112.767 313.783 113.133 313.463 113.64C313.156 114.147 313.003 114.827 313.003 115.68V121H311.403ZM327.386 121.2C326.412 121.2 325.512 120.993 324.686 120.58C323.872 120.167 323.246 119.58 322.806 118.82L324.166 117.84C324.459 118.453 324.886 118.933 325.446 119.28C326.019 119.627 326.706 119.8 327.506 119.8C328.212 119.8 328.766 119.667 329.166 119.4C329.566 119.12 329.766 118.76 329.766 118.32C329.766 118.04 329.672 117.787 329.486 117.56C329.312 117.32 328.972 117.147 328.466 117.04L326.066 116.54C325.092 116.34 324.392 116.007 323.966 115.54C323.552 115.073 323.346 114.493 323.346 113.8C323.346 113.253 323.499 112.753 323.806 112.3C324.126 111.847 324.572 111.487 325.146 111.22C325.732 110.94 326.419 110.8 327.206 110.8C328.192 110.8 329.026 110.993 329.706 111.38C330.386 111.767 330.892 112.313 331.226 113.02L329.886 113.9C329.659 113.313 329.292 112.887 328.786 112.62C328.279 112.34 327.752 112.2 327.206 112.2C326.726 112.2 326.312 112.267 325.966 112.4C325.632 112.533 325.372 112.72 325.186 112.96C325.012 113.187 324.926 113.447 324.926 113.74C324.926 114.033 325.026 114.307 325.226 114.56C325.426 114.8 325.799 114.973 326.346 115.08L328.846 115.6C329.779 115.787 330.432 116.093 330.806 116.52C331.179 116.947 331.366 117.467 331.366 118.08C331.366 118.707 331.199 119.26 330.866 119.74C330.532 120.207 330.066 120.567 329.466 120.82C328.866 121.073 328.172 121.2 327.386 121.2ZM338.513 121.2C337.566 121.2 336.719 120.993 335.973 120.58C335.239 120.167 334.666 119.573 334.253 118.8C333.839 118.013 333.633 117.08 333.633 116C333.633 114.92 333.839 113.993 334.253 113.22C334.666 112.433 335.233 111.833 335.953 111.42C336.673 111.007 337.493 110.8 338.413 110.8C339.346 110.8 340.139 111 340.793 111.4C341.459 111.8 341.966 112.347 342.313 113.04C342.659 113.72 342.833 114.487 342.833 115.34C342.833 115.567 342.826 115.773 342.813 115.96C342.799 116.147 342.779 116.313 342.753 116.46H334.673V115.04H342.053L341.233 115.2C341.233 114.24 340.966 113.5 340.433 112.98C339.913 112.46 339.226 112.2 338.373 112.2C337.719 112.2 337.153 112.353 336.673 112.66C336.206 112.953 335.839 113.387 335.573 113.96C335.319 114.52 335.193 115.2 335.193 116C335.193 116.787 335.326 117.467 335.593 118.04C335.859 118.613 336.233 119.053 336.713 119.36C337.206 119.653 337.793 119.8 338.473 119.8C339.206 119.8 339.799 119.66 340.253 119.38C340.719 119.1 341.093 118.72 341.373 118.24L342.633 118.98C342.379 119.433 342.053 119.827 341.653 120.16C341.266 120.493 340.806 120.753 340.273 120.94C339.753 121.113 339.166 121.2 338.513 121.2ZM350.016 110.8C350.709 110.8 351.316 110.907 351.836 111.12C352.369 111.333 352.829 111.64 353.216 112.04C353.602 112.44 353.916 112.913 354.156 113.46L352.636 114.18C352.422 113.54 352.096 113.053 351.656 112.72C351.229 112.373 350.669 112.2 349.976 112.2C349.309 112.2 348.736 112.353 348.256 112.66C347.776 112.953 347.409 113.387 347.156 113.96C346.902 114.52 346.776 115.2 346.776 116C346.776 116.787 346.902 117.467 347.156 118.04C347.409 118.613 347.776 119.053 348.256 119.36C348.736 119.653 349.309 119.8 349.976 119.8C350.496 119.8 350.942 119.72 351.316 119.56C351.702 119.4 352.016 119.167 352.256 118.86C352.509 118.553 352.682 118.18 352.776 117.74L354.256 118.26C354.029 118.873 353.716 119.4 353.316 119.84C352.929 120.28 352.456 120.62 351.896 120.86C351.349 121.087 350.722 121.2 350.016 121.2C349.082 121.2 348.249 120.993 347.516 120.58C346.782 120.167 346.209 119.573 345.796 118.8C345.382 118.013 345.176 117.08 345.176 116C345.176 114.92 345.382 113.993 345.796 113.22C346.209 112.433 346.782 111.833 347.516 111.42C348.249 111.007 349.082 110.8 350.016 110.8ZM359.427 108.16V118.24C359.427 118.733 359.567 119.1 359.847 119.34C360.127 119.58 360.487 119.7 360.927 119.7C361.314 119.7 361.647 119.633 361.927 119.5C362.207 119.367 362.46 119.187 362.687 118.96L363.247 120.3C362.94 120.58 362.574 120.8 362.147 120.96C361.734 121.12 361.254 121.2 360.707 121.2C360.2 121.2 359.727 121.113 359.287 120.94C358.847 120.753 358.494 120.467 358.227 120.08C357.974 119.68 357.84 119.16 357.827 118.52V108.6L359.427 108.16ZM363.067 111V112.38H355.827V111H363.067ZM369.626 121.2C368.679 121.2 367.833 120.993 367.086 120.58C366.353 120.167 365.779 119.573 365.366 118.8C364.953 118.013 364.746 117.08 364.746 116C364.746 114.92 364.953 113.993 365.366 113.22C365.779 112.433 366.346 111.833 367.066 111.42C367.786 111.007 368.606 110.8 369.526 110.8C370.459 110.8 371.253 111 371.906 111.4C372.573 111.8 373.079 112.347 373.426 113.04C373.773 113.72 373.946 114.487 373.946 115.34C373.946 115.567 373.939 115.773 373.926 115.96C373.913 116.147 373.893 116.313 373.866 116.46H365.786V115.04H373.166L372.346 115.2C372.346 114.24 372.079 113.5 371.546 112.98C371.026 112.46 370.339 112.2 369.486 112.2C368.833 112.2 368.266 112.353 367.786 112.66C367.319 112.953 366.953 113.387 366.686 113.96C366.433 114.52 366.306 115.2 366.306 116C366.306 116.787 366.439 117.467 366.706 118.04C366.973 118.613 367.346 119.053 367.826 119.36C368.319 119.653 368.906 119.8 369.586 119.8C370.319 119.8 370.913 119.66 371.366 119.38C371.833 119.1 372.206 118.72 372.486 118.24L373.746 118.98C373.493 119.433 373.166 119.827 372.766 120.16C372.379 120.493 371.919 120.753 371.386 120.94C370.866 121.113 370.279 121.2 369.626 121.2ZM379.056 108.16V118.24C379.056 118.733 379.196 119.1 379.476 119.34C379.756 119.58 380.116 119.7 380.556 119.7C380.943 119.7 381.276 119.633 381.556 119.5C381.836 119.367 382.089 119.187 382.316 118.96L382.876 120.3C382.569 120.58 382.203 120.8 381.776 120.96C381.363 121.12 380.883 121.2 380.336 121.2C379.829 121.2 379.356 121.113 378.916 120.94C378.476 120.753 378.123 120.467 377.856 120.08C377.603 119.68 377.469 119.16 377.456 118.52V108.6L379.056 108.16ZM382.696 111V112.38H375.456V111H382.696ZM388.695 121.2C388.055 121.2 387.448 121.08 386.875 120.84C386.315 120.6 385.855 120.213 385.495 119.68C385.148 119.133 384.975 118.427 384.975 117.56V111H386.575V117.14C386.575 118.153 386.795 118.853 387.235 119.24C387.675 119.613 388.295 119.8 389.095 119.8C389.468 119.8 389.835 119.74 390.195 119.62C390.555 119.487 390.875 119.287 391.155 119.02C391.448 118.74 391.675 118.387 391.835 117.96C392.008 117.533 392.095 117.027 392.095 116.44V111H393.695V121H392.295L392.195 119.48C391.848 120.08 391.375 120.52 390.775 120.8C390.188 121.067 389.495 121.2 388.695 121.2ZM397.419 121V111H398.719L398.939 112.64C399.219 112.027 399.625 111.567 400.159 111.26C400.705 110.953 401.365 110.8 402.139 110.8C402.312 110.8 402.499 110.813 402.699 110.84C402.912 110.867 403.092 110.92 403.239 111L402.959 112.46C402.812 112.407 402.652 112.367 402.479 112.34C402.305 112.313 402.059 112.3 401.739 112.3C401.325 112.3 400.905 112.42 400.479 112.66C400.065 112.9 399.719 113.267 399.439 113.76C399.159 114.24 399.019 114.853 399.019 115.6V121H397.419ZM140.251 149.54C140.251 148.793 140.051 148.22 139.651 147.82C139.251 147.407 138.684 147.2 137.951 147.2C137.257 147.2 136.671 147.353 136.191 147.66C135.711 147.953 135.357 148.433 135.131 149.1L133.831 148.3C134.097 147.553 134.591 146.953 135.311 146.5C136.031 146.033 136.924 145.8 137.991 145.8C138.711 145.8 139.364 145.927 139.951 146.18C140.537 146.42 140.997 146.793 141.331 147.3C141.677 147.793 141.851 148.433 141.851 149.22V154.06C141.851 154.54 142.104 154.78 142.611 154.78C142.864 154.78 143.111 154.747 143.351 154.68L143.271 155.94C143.004 156.073 142.657 156.14 142.231 156.14C141.844 156.14 141.497 156.067 141.191 155.92C140.884 155.773 140.644 155.553 140.471 155.26C140.297 154.953 140.211 154.573 140.211 154.12V153.92L140.611 153.98C140.451 154.5 140.177 154.927 139.791 155.26C139.404 155.58 138.971 155.82 138.491 155.98C138.011 156.127 137.537 156.2 137.071 156.2C136.484 156.2 135.937 156.1 135.431 155.9C134.924 155.7 134.517 155.4 134.211 155C133.917 154.587 133.771 154.08 133.771 153.48C133.771 152.733 134.017 152.12 134.511 151.64C135.017 151.147 135.717 150.813 136.611 150.64L140.571 149.86V151.18L137.351 151.84C136.697 151.973 136.211 152.16 135.891 152.4C135.571 152.64 135.411 152.973 135.411 153.4C135.411 153.813 135.571 154.153 135.891 154.42C136.224 154.673 136.691 154.8 137.291 154.8C137.677 154.8 138.044 154.753 138.391 154.66C138.751 154.553 139.071 154.4 139.351 154.2C139.631 153.987 139.851 153.727 140.011 153.42C140.171 153.1 140.251 152.727 140.251 152.3V149.54ZM149.639 156.2C148.812 156.2 148.052 155.993 147.359 155.58C146.666 155.167 146.112 154.573 145.699 153.8C145.286 153.013 145.079 152.08 145.079 151C145.079 149.893 145.299 148.953 145.739 148.18C146.179 147.407 146.759 146.82 147.479 146.42C148.199 146.007 148.972 145.8 149.799 145.8C150.626 145.8 151.339 146.013 151.939 146.44C152.552 146.867 152.959 147.433 153.159 148.14L152.959 148.28V141.4H154.559V156H153.159L153.019 153.58L153.239 153.46C153.146 154.047 152.919 154.547 152.559 154.96C152.212 155.36 151.779 155.667 151.259 155.88C150.752 156.093 150.212 156.2 149.639 156.2ZM149.799 154.8C150.439 154.8 150.992 154.64 151.459 154.32C151.939 154 152.306 153.547 152.559 152.96C152.826 152.36 152.959 151.66 152.959 150.86C152.959 150.1 152.826 149.447 152.559 148.9C152.306 148.353 151.946 147.933 151.479 147.64C151.026 147.347 150.492 147.2 149.879 147.2C148.866 147.2 148.079 147.547 147.519 148.24C146.959 148.933 146.679 149.853 146.679 151C146.679 152.147 146.952 153.067 147.499 153.76C148.046 154.453 148.812 154.8 149.799 154.8ZM159.078 144.08C158.718 144.08 158.425 143.973 158.198 143.76C157.985 143.533 157.878 143.24 157.878 142.88C157.878 142.52 157.985 142.233 158.198 142.02C158.425 141.793 158.718 141.68 159.078 141.68C159.438 141.68 159.725 141.793 159.938 142.02C160.165 142.233 160.278 142.52 160.278 142.88C160.278 143.24 160.165 143.533 159.938 143.76C159.725 143.973 159.438 144.08 159.078 144.08ZM159.878 146V156H158.278V146H159.878ZM163.59 160.2V146H164.99L165.13 148.44L164.91 148.16C165.084 147.693 165.344 147.287 165.69 146.94C166.037 146.58 166.457 146.3 166.95 146.1C167.444 145.9 167.977 145.8 168.55 145.8C169.364 145.8 170.11 146.007 170.79 146.42C171.484 146.833 172.037 147.427 172.45 148.2C172.864 148.973 173.07 149.907 173.07 151C173.07 152.08 172.857 153.013 172.43 153.8C172.017 154.573 171.464 155.167 170.77 155.58C170.077 155.993 169.317 156.2 168.49 156.2C167.664 156.2 166.937 156 166.31 155.6C165.697 155.187 165.257 154.667 164.99 154.04L165.19 153.74V160.2H163.59ZM168.33 154.8C169.317 154.8 170.084 154.453 170.63 153.76C171.19 153.067 171.47 152.147 171.47 151C171.47 149.853 171.197 148.933 170.65 148.24C170.117 147.547 169.364 147.2 168.39 147.2C167.75 147.2 167.19 147.36 166.71 147.68C166.23 147.987 165.857 148.427 165.59 149C165.324 149.56 165.19 150.227 165.19 151C165.19 151.76 165.317 152.427 165.57 153C165.837 153.573 166.204 154.02 166.67 154.34C167.15 154.647 167.704 154.8 168.33 154.8ZM176.93 144.08C176.57 144.08 176.276 143.973 176.05 143.76C175.836 143.533 175.73 143.24 175.73 142.88C175.73 142.52 175.836 142.233 176.05 142.02C176.276 141.793 176.57 141.68 176.93 141.68C177.29 141.68 177.576 141.793 177.79 142.02C178.016 142.233 178.13 142.52 178.13 142.88C178.13 143.24 178.016 143.533 177.79 143.76C177.576 143.973 177.29 144.08 176.93 144.08ZM177.73 146V156H176.13V146H177.73ZM185.042 156.2C184.069 156.2 183.169 155.993 182.342 155.58C181.529 155.167 180.902 154.58 180.462 153.82L181.822 152.84C182.115 153.453 182.542 153.933 183.102 154.28C183.675 154.627 184.362 154.8 185.162 154.8C185.869 154.8 186.422 154.667 186.822 154.4C187.222 154.12 187.422 153.76 187.422 153.32C187.422 153.04 187.329 152.787 187.142 152.56C186.969 152.32 186.629 152.147 186.122 152.04L183.722 151.54C182.749 151.34 182.049 151.007 181.622 150.54C181.209 150.073 181.002 149.493 181.002 148.8C181.002 148.253 181.155 147.753 181.462 147.3C181.782 146.847 182.229 146.487 182.802 146.22C183.389 145.94 184.075 145.8 184.862 145.8C185.849 145.8 186.682 145.993 187.362 146.38C188.042 146.767 188.549 147.313 188.882 148.02L187.542 148.9C187.315 148.313 186.949 147.887 186.442 147.62C185.935 147.34 185.409 147.2 184.862 147.2C184.382 147.2 183.969 147.267 183.622 147.4C183.289 147.533 183.029 147.72 182.842 147.96C182.669 148.187 182.582 148.447 182.582 148.74C182.582 149.033 182.682 149.307 182.882 149.56C183.082 149.8 183.455 149.973 184.002 150.08L186.502 150.6C187.435 150.787 188.089 151.093 188.462 151.52C188.835 151.947 189.022 152.467 189.022 153.08C189.022 153.707 188.855 154.26 188.522 154.74C188.189 155.207 187.722 155.567 187.122 155.82C186.522 156.073 185.829 156.2 185.042 156.2ZM192.789 144.08C192.429 144.08 192.136 143.973 191.909 143.76C191.696 143.533 191.589 143.24 191.589 142.88C191.589 142.52 191.696 142.233 191.909 142.02C192.136 141.793 192.429 141.68 192.789 141.68C193.149 141.68 193.436 141.793 193.649 142.02C193.876 142.233 193.989 142.52 193.989 142.88C193.989 143.24 193.876 143.533 193.649 143.76C193.436 143.973 193.149 144.08 192.789 144.08ZM193.589 146V156H191.989V146H193.589ZM201.441 145.8C202.135 145.8 202.741 145.907 203.261 146.12C203.795 146.333 204.255 146.64 204.641 147.04C205.028 147.44 205.341 147.913 205.581 148.46L204.061 149.18C203.848 148.54 203.521 148.053 203.081 147.72C202.655 147.373 202.095 147.2 201.401 147.2C200.735 147.2 200.161 147.353 199.681 147.66C199.201 147.953 198.835 148.387 198.581 148.96C198.328 149.52 198.201 150.2 198.201 151C198.201 151.787 198.328 152.467 198.581 153.04C198.835 153.613 199.201 154.053 199.681 154.36C200.161 154.653 200.735 154.8 201.401 154.8C201.921 154.8 202.368 154.72 202.741 154.56C203.128 154.4 203.441 154.167 203.681 153.86C203.935 153.553 204.108 153.18 204.201 152.74L205.681 153.26C205.455 153.873 205.141 154.4 204.741 154.84C204.355 155.28 203.881 155.62 203.321 155.86C202.775 156.087 202.148 156.2 201.441 156.2C200.508 156.2 199.675 155.993 198.941 155.58C198.208 155.167 197.635 154.573 197.221 153.8C196.808 153.013 196.601 152.08 196.601 151C196.601 149.92 196.808 148.993 197.221 148.22C197.635 147.433 198.208 146.833 198.941 146.42C199.675 146.007 200.508 145.8 201.441 145.8ZM209.293 144.08C208.933 144.08 208.639 143.973 208.413 143.76C208.199 143.533 208.093 143.24 208.093 142.88C208.093 142.52 208.199 142.233 208.413 142.02C208.639 141.793 208.933 141.68 209.293 141.68C209.653 141.68 209.939 141.793 210.153 142.02C210.379 142.233 210.493 142.52 210.493 142.88C210.493 143.24 210.379 143.533 210.153 143.76C209.939 143.973 209.653 144.08 209.293 144.08ZM210.093 146V156H208.493V146H210.093ZM213.805 156V146H215.205L215.345 148.24L215.085 148.02C215.299 147.487 215.585 147.06 215.945 146.74C216.305 146.407 216.719 146.167 217.185 146.02C217.665 145.873 218.159 145.8 218.665 145.8C219.385 145.8 220.039 145.94 220.625 146.22C221.212 146.487 221.679 146.9 222.025 147.46C222.385 148.02 222.565 148.733 222.565 149.6V156H220.965V150.16C220.965 149.053 220.725 148.287 220.245 147.86C219.779 147.42 219.199 147.2 218.505 147.2C218.025 147.2 217.545 147.313 217.065 147.54C216.585 147.767 216.185 148.133 215.865 148.64C215.559 149.147 215.405 149.827 215.405 150.68V156H213.805ZM234.608 144.16L234.968 145.58C234.955 145.58 234.935 145.58 234.908 145.58C234.881 145.58 234.855 145.58 234.828 145.58C234.175 145.58 233.668 145.713 233.308 145.98C232.961 146.233 232.788 146.647 232.788 147.22L231.808 146.72C231.808 146.2 231.928 145.747 232.168 145.36C232.408 144.973 232.735 144.68 233.148 144.48C233.561 144.267 234.015 144.16 234.508 144.16C234.521 144.16 234.535 144.16 234.548 144.16C234.575 144.16 234.595 144.16 234.608 144.16ZM231.568 154.72C232.515 154.72 233.255 154.94 233.788 155.38C234.321 155.807 234.588 156.38 234.588 157.1C234.588 157.753 234.368 158.32 233.928 158.8C233.501 159.28 232.921 159.647 232.188 159.9C231.468 160.167 230.655 160.3 229.748 160.3C228.175 160.3 226.995 160.033 226.208 159.5C225.435 158.967 225.048 158.327 225.048 157.58C225.048 157.047 225.221 156.567 225.568 156.14C225.928 155.727 226.528 155.493 227.368 155.44L227.228 155.74C226.775 155.62 226.388 155.42 226.068 155.14C225.761 154.847 225.608 154.427 225.608 153.88C225.608 153.333 225.808 152.867 226.208 152.48C226.621 152.08 227.228 151.833 228.028 151.74L229.088 152.28H228.888C228.235 152.347 227.768 152.513 227.488 152.78C227.221 153.033 227.088 153.313 227.088 153.62C227.088 153.993 227.221 154.273 227.488 154.46C227.768 154.633 228.155 154.72 228.648 154.72H231.568ZM229.728 158.96C230.501 158.96 231.135 158.88 231.628 158.72C232.135 158.56 232.508 158.353 232.748 158.1C232.988 157.847 233.108 157.573 233.108 157.28C233.108 156.92 232.961 156.633 232.668 156.42C232.388 156.207 231.875 156.1 231.128 156.1H228.048C227.621 156.1 227.261 156.207 226.968 156.42C226.675 156.647 226.528 156.953 226.528 157.34C226.528 157.833 226.808 158.227 227.368 158.52C227.941 158.813 228.728 158.96 229.728 158.96ZM229.588 145.8C230.388 145.8 231.095 145.947 231.708 146.24C232.335 146.52 232.821 146.913 233.168 147.42C233.515 147.927 233.688 148.513 233.688 149.18C233.688 149.833 233.515 150.42 233.168 150.94C232.821 151.447 232.335 151.847 231.708 152.14C231.095 152.42 230.388 152.56 229.588 152.56C228.268 152.56 227.255 152.247 226.548 151.62C225.841 150.98 225.488 150.167 225.488 149.18C225.488 148.513 225.661 147.927 226.008 147.42C226.368 146.913 226.855 146.52 227.468 146.24C228.081 145.947 228.788 145.8 229.588 145.8ZM229.588 147.1C228.895 147.1 228.315 147.293 227.848 147.68C227.381 148.053 227.148 148.553 227.148 149.18C227.148 149.793 227.381 150.293 227.848 150.68C228.315 151.067 228.895 151.26 229.588 151.26C230.281 151.26 230.861 151.067 231.328 150.68C231.795 150.293 232.028 149.793 232.028 149.18C232.028 148.553 231.795 148.053 231.328 147.68C230.861 147.293 230.281 147.1 229.588 147.1ZM247.829 156.2C246.882 156.2 246.036 155.993 245.289 155.58C244.556 155.167 243.982 154.573 243.569 153.8C243.156 153.013 242.949 152.08 242.949 151C242.949 149.92 243.156 148.993 243.569 148.22C243.982 147.433 244.549 146.833 245.269 146.42C245.989 146.007 246.809 145.8 247.729 145.8C248.662 145.8 249.456 146 250.109 146.4C250.776 146.8 251.282 147.347 251.629 148.04C251.976 148.72 252.149 149.487 252.149 150.34C252.149 150.567 252.142 150.773 252.129 150.96C252.116 151.147 252.096 151.313 252.069 151.46H243.989V150.04H251.369L250.549 150.2C250.549 149.24 250.282 148.5 249.749 147.98C249.229 147.46 248.542 147.2 247.689 147.2C247.036 147.2 246.469 147.353 245.989 147.66C245.522 147.953 245.156 148.387 244.889 148.96C244.636 149.52 244.509 150.2 244.509 151C244.509 151.787 244.642 152.467 244.909 153.04C245.176 153.613 245.549 154.053 246.029 154.36C246.522 154.653 247.109 154.8 247.789 154.8C248.522 154.8 249.116 154.66 249.569 154.38C250.036 154.1 250.409 153.72 250.689 153.24L251.949 153.98C251.696 154.433 251.369 154.827 250.969 155.16C250.582 155.493 250.122 155.753 249.589 155.94C249.069 156.113 248.482 156.2 247.829 156.2ZM256.712 141.4V153.46C256.712 153.967 256.805 154.32 256.992 154.52C257.179 154.707 257.479 154.8 257.892 154.8C258.159 154.8 258.379 154.78 258.552 154.74C258.725 154.7 258.959 154.627 259.252 154.52L258.992 155.92C258.779 156.013 258.545 156.08 258.292 156.12C258.039 156.173 257.779 156.2 257.512 156.2C256.699 156.2 256.092 155.98 255.692 155.54C255.305 155.1 255.112 154.427 255.112 153.52V141.4H256.712ZM262.105 144.08C261.745 144.08 261.452 143.973 261.225 143.76C261.012 143.533 260.905 143.24 260.905 142.88C260.905 142.52 261.012 142.233 261.225 142.02C261.452 141.793 261.745 141.68 262.105 141.68C262.465 141.68 262.752 141.793 262.965 142.02C263.192 142.233 263.305 142.52 263.305 142.88C263.305 143.24 263.192 143.533 262.965 143.76C262.752 143.973 262.465 144.08 262.105 144.08ZM262.905 146V156H261.305V146H262.905ZM268.978 143.16V153.24C268.978 153.733 269.118 154.1 269.398 154.34C269.678 154.58 270.038 154.7 270.478 154.7C270.864 154.7 271.198 154.633 271.478 154.5C271.758 154.367 272.011 154.187 272.238 153.96L272.798 155.3C272.491 155.58 272.124 155.8 271.698 155.96C271.284 156.12 270.804 156.2 270.258 156.2C269.751 156.2 269.278 156.113 268.838 155.94C268.398 155.753 268.044 155.467 267.778 155.08C267.524 154.68 267.391 154.16 267.378 153.52V143.6L268.978 143.16ZM272.618 146V147.38H265.378V146H272.618ZM275.797 153.6C276.183 153.6 276.497 153.72 276.737 153.96C276.977 154.2 277.097 154.513 277.097 154.9C277.097 155.287 276.977 155.6 276.737 155.84C276.497 156.08 276.183 156.2 275.797 156.2C275.41 156.2 275.097 156.08 274.857 155.84C274.617 155.6 274.497 155.287 274.497 154.9C274.497 154.513 274.617 154.2 274.857 153.96C275.097 153.72 275.41 153.6 275.797 153.6Z" fill="black"/>
</svg>
